<svg version="1.1" xmlns="http://www.w3.org/2000/svg" xmlns:xlink="http://www.w3.org/1999/xlink" width="26" height="22" viewBox="0,0,256,216.60938"><g fill="#cecfd0" fill-rule="nonzero" stroke="none" stroke-width="1" stroke-linecap="butt" stroke-linejoin="miter" stroke-miterlimit="10" stroke-dasharray="" stroke-dashoffset="0" font-family="none" font-weight="none" font-size="none" text-anchor="none" style="mix-blend-mode: normal"><g transform="translate(0,-0.00302) scale(9.84615,9.84615)"><path d="M15.5,12.25h-1.25v-1.25c0,-0.3315 -0.1317,-0.6495 -0.3661,-0.8839c-0.2344,-0.2344 -0.5524,-0.3661 -0.8839,-0.3661c-0.3315,0 -0.6495,0.1317 -0.8839,0.3661c-0.2344,0.2344 -0.3661,0.5524 -0.3661,0.8839v1.25h-1.25c-0.3315,0 -0.64946,0.1317 -0.88388,0.3661c-0.23442,0.2344 -0.36612,0.5524 -0.36612,0.8839c0,0.3315 0.1317,0.6495 0.36612,0.8839c0.23442,0.2344 0.55238,0.3661 0.88388,0.3661h1.25v1.25c0,0.3315 0.1317,0.6495 0.3661,0.8839c0.2344,0.2344 0.5524,0.3661 0.8839,0.3661c0.3315,0 0.6495,-0.1317 0.8839,-0.3661c0.2344,-0.2344 0.3661,-0.5524 0.3661,-0.8839v-1.25h1.25c0.3315,0 0.6495,-0.1317 0.8839,-0.3661c0.2344,-0.2344 0.3661,-0.5524 0.3661,-0.8839c0,-0.3315 -0.1317,-0.6495 -0.3661,-0.8839c-0.2344,-0.2344 -0.5524,-0.3661 -0.8839,-0.3661z"></path><path d="M22.375,4.8125h-8.75l-3.2875,-3.975c-0.1163,-0.14339 -0.263,-0.25923 -0.42938,-0.3392c-0.16642,-0.07997 -0.34849,-0.12208 -0.53312,-0.1233h-5.75c-0.81674,-0.01003 -1.60417,0.30399 -2.18988,0.8733c-0.5857,0.56931 -0.92195,1.34751 -0.93512,2.1642v15.175c0.01317,0.8167 0.34942,1.5949 0.93512,2.1642c0.58571,0.5693 1.37314,0.8833 2.18988,0.8733h18.75c0.8167,0.01 1.6042,-0.304 2.1899,-0.8733c0.5857,-0.5693 0.9219,-1.3475 0.9351,-2.1642v-10.7375c-0.0132,-0.81669 -0.3494,-1.59489 -0.9351,-2.1642c-0.5857,-0.5693 -1.3732,-0.88332 -2.1899,-0.8733zM23,18.5625c-0.0047,0.0767 -0.0247,0.1517 -0.0589,0.2205c-0.0342,0.0688 -0.0818,0.1301 -0.1401,0.1802c-0.0583,0.0501 -0.126,0.0881 -0.1991,0.1116c-0.0732,0.0234 -0.1504,0.032 -0.2269,0.0252h-18.75c-0.07654,0.0068 -0.15368,-0.0018 -0.22685,-0.0252c-0.07317,-0.0235 -0.14089,-0.0615 -0.19915,-0.1116c-0.05827,-0.0501 -0.1059,-0.1114 -0.14008,-0.1802c-0.03418,-0.0688 -0.05421,-0.1438 -0.05892,-0.2205v-15.15c0.00471,-0.0767 0.02474,-0.15168 0.05892,-0.22051c0.03418,-0.06883 0.08181,-0.13011 0.14008,-0.18022c0.05826,-0.0501 0.12598,-0.08802 0.19915,-0.11151c0.07317,-0.0235 0.15031,-0.03208 0.22685,-0.02526h5.1625l3.25,3.975c0.1163,0.1434 0.263,0.25924 0.4294,0.33921c0.1664,0.07997 0.3485,0.12207 0.5331,0.12329h9.375c0.0765,-0.00682 0.1537,0.00176 0.2269,0.02526c0.0731,0.02349 0.1408,0.06141 0.1991,0.11151c0.0583,0.05011 0.1059,0.11139 0.1401,0.18022c0.0342,0.06883 0.0542,0.14381 0.0589,0.22051z"></path></g></g></svg>